<svg xmlns="http://www.w3.org/2000/svg" viewBox="90 135 195 105" width="32" height="32"><defs><clipPath id="a"><path d="M 95.363281 227 L 133 227 L 133 231.648438 L 95.363281 231.648438Z" clip-rule="nonzero"/></clipPath><clipPath id="b"><path d="M 184 138.648438 L 188 138.648438 L 188 179 L 184 179Z" clip-rule="nonzero"/></clipPath><clipPath id="c"><path d="M 242 225 L 279.863281 225 L 279.863281 230 L 242 230Z" clip-rule="nonzero"/></clipPath><clipPath id="d"><path d="M 172.296875 205.949219 L 202.703125 205.949219 L 202.703125 236.351562 L 172.296875 236.351562Z" clip-rule="nonzero"/></clipPath><clipPath id="e"><path d="M 187.5 205.949219 C 179.105469 205.949219 172.296875 212.753906 172.296875 221.152344 C 172.296875 229.546875 179.105469 236.351562 187.5 236.351562 C 195.894531 236.351562 202.703125 229.546875 202.703125 221.152344 C 202.703125 212.753906 195.894531 205.949219 187.5 205.949219Z" clip-rule="nonzero"/></clipPath><clipPath id="f"><path d="M 0.296875 0.949219 L 30.703125 0.949219 L 30.703125 31.351562 L 0.296875 31.351562Z" clip-rule="nonzero"/></clipPath><clipPath id="g"><path d="M 15.5 0.949219 C 7.105469 0.949219 0.296875 7.753906 0.296875 16.152344 C 0.296875 24.546875 7.105469 31.351562 15.5 31.351562 C 23.894531 31.351562 30.703125 24.546875 30.703125 16.152344 C 30.703125 7.753906 23.894531 0.949219 15.5 0.949219Z" clip-rule="nonzero"/></clipPath><clipPath id="h"><rect x="0" width="31" y="0" height="32"/></clipPath></defs><g clip-path="url(#a)"><path fill="#39241d" d="M 132.710938 229.644531 C 132.710938 229.390625 132.710938 229.050781 132.710938 228.796875 L 131.351562 228.710938 L 119.382812 228.199219 L 107.417969 227.863281 L 101.390625 227.691406 L 95.363281 227.523438 L 95.363281 227.863281 C 99.355469 229.132812 103.257812 229.898438 107.246094 230.492188 C 111.238281 231 115.226562 231.339844 119.214844 231.511719 C 123.203125 231.679688 127.191406 231.597656 131.183594 231.339844 C 131.691406 231.257812 132.199219 231.257812 132.710938 231.171875 C 132.710938 230.664062 132.710938 230.152344 132.710938 229.644531Z"/></g><path fill="#39241d" d="M 133.472656 221.15625 L 132.199219 220.902344 L 120.402344 218.78125 L 108.605469 216.742188 L 102.664062 215.722656 L 96.722656 214.789062 L 96.636719 215.128906 C 100.371094 216.996094 104.191406 218.183594 108.097656 219.375 C 112 220.476562 115.90625 221.324219 119.808594 222.003906 C 123.714844 222.683594 127.703125 223.191406 131.691406 223.53125 C 132.117188 223.53125 132.625 223.617188 133.050781 223.617188 C 133.21875 222.769531 133.304688 221.921875 133.472656 221.15625Z"/><path fill="#39241d" d="M 134.660156 216.0625 C 134.917969 215.300781 135.171875 214.535156 135.425781 213.773438 L 134.238281 213.347656 L 122.863281 209.613281 L 111.40625 205.964844 L 105.632812 204.097656 L 99.949219 202.3125 L 99.863281 202.652344 C 103.34375 205.03125 106.90625 206.8125 110.558594 208.425781 C 114.207031 210.039062 117.941406 211.480469 121.761719 212.667969 C 125.582031 213.941406 129.398438 214.960938 133.390625 215.808594 C 133.8125 215.894531 134.238281 215.980469 134.660156 216.0625Z"/><path fill="#39241d" d="M 137.378906 208.847656 C 137.71875 208.171875 138.058594 207.40625 138.398438 206.726562 L 137.125 206.132812 L 126.34375 200.785156 L 115.566406 195.609375 L 110.132812 192.976562 L 104.699219 190.429688 L 104.617188 190.6875 C 107.671875 193.488281 111.066406 195.777344 114.460938 197.898438 C 117.855469 200.023438 121.421875 201.972656 124.984375 203.671875 C 128.550781 205.453125 132.285156 206.980469 136.019531 208.425781 C 136.445312 208.59375 136.867188 208.765625 137.378906 208.847656Z"/><path fill="#39241d" d="M 141.113281 202.230469 C 141.535156 201.550781 141.960938 200.957031 142.46875 200.277344 L 141.027344 199.34375 L 131.097656 192.554688 L 121.167969 185.933594 L 116.160156 182.621094 L 111.152344 179.3125 L 110.980469 179.566406 C 113.613281 182.792969 116.667969 185.507812 119.722656 188.054688 C 122.78125 190.601562 126.003906 192.976562 129.316406 195.269531 C 132.625 197.476562 136.019531 199.597656 139.585938 201.464844 C 140.09375 201.71875 140.601562 201.972656 141.113281 202.230469Z"/><path fill="#39241d" d="M 144.167969 195.183594 C 144.675781 195.609375 145.1875 195.949219 145.78125 196.289062 C 146.289062 195.695312 146.882812 195.097656 147.394531 194.589844 L 145.867188 193.230469 L 136.953125 185.167969 L 128.042969 177.191406 L 123.542969 173.203125 L 119.042969 169.210938 L 118.875 169.464844 C 121.082031 173.03125 123.628906 176.085938 126.34375 179.140625 C 129.058594 182.113281 131.859375 184.914062 134.832031 187.628906 C 137.800781 190.347656 140.859375 192.808594 144.167969 195.183594Z"/><path fill="#39241d" d="M 141.367188 180.671875 C 143.914062 183.726562 146.628906 186.695312 149.515625 189.496094 C 150.109375 190.007812 150.617188 190.601562 151.210938 191.109375 C 151.808594 190.601562 152.402344 190.089844 153.082031 189.667969 L 151.550781 187.886719 L 143.914062 178.632812 L 136.191406 169.464844 L 132.285156 164.882812 L 128.382812 160.300781 L 128.125 160.46875 C 129.824219 164.289062 131.945312 167.683594 134.152344 171.078125 C 136.445312 174.390625 138.820312 177.613281 141.367188 180.671875Z"/><path fill="#39241d" d="M 148.835938 174.730469 C 150.957031 178.125 153.25 181.433594 155.710938 184.574219 C 156.21875 185.253906 156.816406 185.933594 157.410156 186.613281 C 158.085938 186.1875 158.683594 185.847656 159.359375 185.421875 L 157.917969 183.132812 L 151.636719 172.945312 L 145.273438 162.847656 L 142.046875 157.753906 L 138.820312 152.746094 L 138.566406 152.914062 C 139.667969 156.90625 141.367188 160.640625 143.066406 164.203125 C 144.761719 167.769531 146.714844 171.335938 148.835938 174.730469Z"/><path fill="#39241d" d="M 157.070312 169.890625 C 158.683594 173.539062 160.464844 177.105469 162.5 180.585938 C 163.011719 181.433594 163.519531 182.28125 164.027344 183.132812 C 164.707031 182.792969 165.472656 182.539062 166.152344 182.199219 L 164.960938 179.480469 L 160.039062 168.617188 L 155.117188 157.667969 L 152.65625 152.238281 L 150.109375 146.804688 L 149.769531 146.972656 C 150.363281 151.132812 151.46875 154.953125 152.65625 158.773438 C 153.929688 162.507812 155.457031 166.242188 157.070312 169.890625Z"/><path fill="#39241d" d="M 165.8125 166.242188 C 166.914062 170.0625 168.1875 173.878906 169.714844 177.613281 C 170.140625 178.632812 170.566406 179.566406 170.988281 180.585938 C 171.667969 180.414062 172.433594 180.160156 173.109375 179.992188 L 172.261719 176.9375 L 169.035156 165.394531 L 165.640625 153.847656 L 163.945312 148.078125 L 162.246094 142.304688 L 161.90625 142.476562 C 161.90625 146.636719 162.417969 150.625 163.09375 154.613281 C 163.773438 158.519531 164.707031 162.421875 165.8125 166.242188Z"/><path fill="#39241d" d="M 175.0625 163.863281 C 175.65625 167.855469 176.335938 171.757812 177.355469 175.664062 C 177.609375 176.765625 177.949219 177.871094 178.203125 178.886719 C 178.96875 178.804688 179.644531 178.632812 180.410156 178.546875 L 179.984375 175.152344 L 178.375 163.269531 L 176.675781 151.386719 L 175.828125 145.445312 L 174.894531 139.503906 L 174.554688 139.589844 C 173.960938 143.75 173.960938 147.738281 174.042969 151.726562 C 174.128906 155.972656 174.46875 159.960938 175.0625 163.863281Z"/><g clip-path="url(#b)"><path fill="#39241d" d="M 185.503906 178.207031 C 186.183594 178.207031 186.859375 178.125 187.453125 178.125 C 187.539062 178.125 187.625 178.125 187.710938 178.125 L 187.710938 174.644531 L 187.792969 162.675781 L 187.710938 150.710938 L 187.710938 144.769531 L 187.625 138.742188 L 187.285156 138.742188 C 186.097656 142.730469 185.585938 146.71875 185.078125 150.710938 C 184.652344 154.699219 184.484375 158.6875 184.484375 162.675781 C 184.484375 166.664062 184.652344 170.65625 185.078125 174.644531 C 185.164062 175.832031 185.332031 177.019531 185.503906 178.207031Z"/></g><path fill="#39241d" d="M 195.09375 178.632812 L 195.519531 175.40625 L 197.214844 163.527344 L 198.828125 151.644531 L 199.59375 145.703125 L 200.355469 139.761719 L 200.101562 139.761719 C 198.402344 143.578125 197.300781 147.398438 196.28125 151.304688 C 195.347656 155.207031 194.585938 159.113281 193.992188 163.101562 C 193.394531 167.089844 193.058594 171.078125 192.886719 175.070312 C 192.886719 176.171875 192.886719 177.273438 192.886719 178.378906 C 193.566406 178.464844 194.328125 178.546875 195.09375 178.632812Z"/><path fill="#39241d" d="M 202.222656 180.078125 L 203.15625 177.019531 L 206.550781 165.476562 L 209.777344 153.933594 L 211.390625 148.164062 L 213.003906 142.390625 L 212.664062 142.304688 C 210.457031 145.871094 208.757812 149.519531 207.230469 153.253906 C 205.703125 156.988281 204.429688 160.808594 203.328125 164.628906 C 202.222656 168.449219 201.289062 172.351562 200.609375 176.339844 C 200.441406 177.445312 200.269531 178.464844 200.101562 179.566406 C 200.867188 179.738281 201.542969 179.90625 202.222656 180.078125Z"/><path fill="#39241d" d="M 209.4375 182.453125 L 210.625 179.90625 L 215.546875 168.957031 L 220.386719 158.007812 L 222.761719 152.492188 L 225.140625 146.972656 L 224.800781 146.804688 C 222.085938 149.945312 219.960938 153.425781 217.925781 156.90625 C 215.886719 160.386719 214.105469 163.949219 212.492188 167.597656 C 210.796875 171.164062 209.351562 174.898438 208.164062 178.71875 C 207.824219 179.652344 207.570312 180.671875 207.316406 181.605469 C 207.996094 181.945312 208.757812 182.199219 209.4375 182.453125Z"/><path fill="#39241d" d="M 215.972656 185.679688 L 217.417969 183.472656 L 223.78125 173.371094 L 230.0625 163.1875 L 236.34375 153 L 236.089844 152.832031 C 232.949219 155.632812 230.402344 158.6875 227.855469 161.828125 C 225.394531 164.96875 223.101562 168.277344 220.980469 171.671875 C 218.945312 174.984375 216.992188 178.464844 215.210938 182.113281 C 214.785156 182.960938 214.445312 183.8125 214.019531 184.574219 C 214.699219 184.914062 215.378906 185.339844 215.972656 185.679688Z"/><path fill="#39241d" d="M 246.527344 160.300781 C 243.046875 162.589844 240.078125 165.308594 237.191406 168.109375 C 234.222656 170.910156 231.503906 173.796875 228.960938 176.851562 C 226.414062 179.90625 223.953125 183.132812 221.746094 186.441406 C 221.320312 187.121094 220.894531 187.800781 220.386719 188.480469 C 221.066406 188.902344 221.660156 189.414062 222.253906 189.835938 L 223.695312 188.054688 L 231.421875 178.886719 L 239.058594 169.636719 L 242.878906 165.054688 L 246.699219 160.386719Z"/><path fill="#39241d" d="M 255.78125 169.128906 C 252.046875 170.910156 248.652344 173.203125 245.425781 175.492188 C 242.199219 177.953125 239.058594 180.5 236.089844 183.214844 C 233.117188 185.847656 230.230469 188.734375 227.601562 191.703125 C 227.175781 192.214844 226.667969 192.722656 226.242188 193.230469 C 226.835938 193.742188 227.429688 194.335938 227.941406 194.929688 L 229.382812 193.65625 L 238.296875 185.59375 L 247.207031 177.53125 L 256.035156 169.382812Z"/><path fill="#39241d" d="M 263.671875 179.3125 C 259.683594 180.585938 256.035156 182.367188 252.554688 184.234375 C 248.988281 186.101562 245.59375 188.222656 242.285156 190.429688 C 238.972656 192.636719 235.75 195.015625 232.695312 197.644531 C 232.269531 197.984375 231.84375 198.410156 231.335938 198.832031 C 231.84375 199.429688 232.269531 200.023438 232.777344 200.699219 L 234.136719 199.765625 L 244.066406 193.148438 L 253.996094 186.355469 L 258.921875 182.960938 L 263.84375 179.566406Z"/><path fill="#39241d" d="M 275.046875 202.3125 C 270.886719 202.484375 266.898438 203.164062 262.996094 203.925781 C 259.089844 204.773438 255.1875 205.792969 251.367188 207.066406 C 247.546875 208.339844 243.8125 209.699219 240.164062 211.308594 C 239.738281 211.480469 239.3125 211.648438 238.972656 211.90625 C 239.3125 212.667969 239.570312 213.433594 239.824219 214.28125 L 240.925781 213.941406 L 252.386719 210.292969 L 263.757812 206.558594 L 269.445312 204.691406 L 275.132812 202.738281Z"/><path fill="#39241d" d="M 270.125 190.429688 C 266.050781 191.109375 262.144531 192.382812 258.410156 193.742188 C 254.675781 195.097656 250.941406 196.710938 247.378906 198.496094 C 243.8125 200.277344 240.246094 202.144531 236.851562 204.265625 C 236.429688 204.519531 236.089844 204.773438 235.664062 205.03125 C 236.089844 205.707031 236.429688 206.472656 236.851562 207.152344 L 238.125 206.558594 L 248.90625 201.378906 L 259.683594 196.03125 L 265.03125 193.402344 L 270.378906 190.6875Z"/><path fill="#39241d" d="M 278.015625 214.789062 C 273.859375 214.367188 269.871094 214.449219 265.796875 214.707031 C 261.804688 214.960938 257.816406 215.46875 253.914062 216.234375 C 250.007812 216.914062 246.105469 217.847656 242.199219 218.863281 C 241.859375 218.949219 241.519531 219.035156 241.179688 219.203125 C 241.351562 220.054688 241.519531 220.902344 241.691406 221.75 L 242.792969 221.582031 L 254.589844 219.542969 L 266.390625 217.421875 L 272.246094 216.316406 L 278.101562 215.214844Z"/><g clip-path="url(#c)"><path fill="#39241d" d="M 279.460938 227.605469 C 275.386719 226.589844 271.398438 226.164062 267.40625 225.824219 C 263.417969 225.570312 259.429688 225.484375 255.441406 225.65625 C 251.453125 225.824219 247.460938 226.078125 243.472656 226.671875 C 243.046875 226.757812 242.625 226.757812 242.199219 226.84375 C 242.285156 227.691406 242.285156 228.457031 242.285156 229.304688 L 243.644531 229.304688 L 255.609375 228.964844 L 267.578125 228.457031 L 273.605469 228.199219 L 279.628906 227.945312Z"/></g><g clip-path="url(#d)"><g clip-path="url(#e)"><g transform="matrix(1,0,0,1,172,205)"><g clip-path="url(#h)"><g clip-path="url(#f)"><g clip-path="url(#g)"><path fill="#93694d" d="M 0.296875 0.949219 L 30.703125 0.949219 L 30.703125 31.351562 L 0.296875 31.351562Z" fill-opacity="1" fill-rule="nonzero"/></g></g></g></g></g></g></svg>
